<?xml version="1.0" standalone="no"?>
<!DOCTYPE svg PUBLIC "-//W3C//DTD SVG 20010904//EN"
 "http://www.w3.org/TR/2001/REC-SVG-20010904/DTD/svg10.dtd">
<svg version="1.0" xmlns="http://www.w3.org/2000/svg"
 width="260.000000pt" height="260.000000pt" viewBox="0 0 260.000000 260.000000"
 preserveAspectRatio="xMidYMid meet">
<metadata>
Created by potrace 1.14, written by Peter Selinger 2001-2017
</metadata>
<g transform="translate(0.000000,260.000000) scale(0.100000,-0.100000)"
fill="#000000" stroke="none">
<path d="M840 1910 c0 -5 -6 -7 -14 -4 -8 3 -17 0 -21 -6 -5 -8 -11 -8 -21 1
-11 9 -14 8 -14 -5 0 -10 -4 -14 -10 -11 -5 3 -10 1 -10 -5 0 -6 -4 -9 -9 -6
-5 4 -25 -10 -45 -29 -20 -19 -41 -35 -47 -35 -5 0 -8 -4 -4 -9 3 -5 1 -12 -5
-16 -6 -4 -8 -11 -5 -16 4 -5 -2 -6 -11 -2 -13 5 -16 3 -11 -10 3 -9 2 -17 -4
-17 -6 0 -8 -4 -4 -9 3 -5 1 -13 -5 -16 -8 -5 -7 -12 2 -23 11 -13 11 -15 -3
-10 -14 6 -16 0 -14 -38 1 -25 -2 -47 -7 -50 -5 -3 -2 -15 8 -25 13 -15 14
-19 3 -19 -11 -1 -11 -3 2 -13 9 -7 15 -20 13 -29 -1 -9 5 -19 13 -22 8 -3 12
-10 8 -15 -8 -14 88 -108 104 -103 8 3 11 0 7 -6 -3 -5 1 -13 10 -16 10 -4 13
-2 9 7 -4 6 -1 5 7 -3 7 -8 24 -17 38 -18 14 -2 29 -8 34 -12 5 -5 16 -5 26 0
9 5 22 5 30 0 15 -9 42 -2 36 9 -3 4 8 6 25 5 16 -1 29 2 29 7 0 5 3 8 8 8 4
-1 10 0 15 1 4 1 12 3 17 4 6 0 10 6 11 11 0 6 11 16 25 23 13 7 24 17 24 22
0 5 7 7 15 3 9 -3 15 -2 14 3 -4 23 2 35 14 28 6 -4 9 -3 4 1 -4 5 0 19 8 32
9 13 13 28 10 33 -3 5 0 12 6 16 8 5 9 3 4 -6 -5 -8 -4 -11 1 -7 6 3 9 22 9
41 -1 20 1 36 5 36 3 0 6 9 6 19 0 11 -4 17 -8 15 -4 -3 -8 -1 -8 5 0 5 5 13
10 16 8 5 8 11 1 19 -6 7 -8 16 -4 19 3 4 2 7 -4 7 -6 0 -9 9 -6 20 3 12 0 20
-8 20 -7 0 -9 3 -6 7 4 3 -1 12 -11 20 -11 10 -12 12 -2 8 8 -4 4 3 -9 14 -13
12 -20 21 -17 21 14 0 -51 58 -72 64 -12 4 -19 12 -16 18 4 6 3 8 -3 5 -5 -3
-21 0 -36 8 -14 7 -28 11 -31 8 -2 -3 -10 -1 -17 3 -7 4 -25 9 -38 10 -19 2
-22 1 -11 -6 12 -7 10 -9 -7 -7 -12 0 -19 5 -17 9 3 4 0 8 -5 8 -6 0 -11 -4
-11 -10z"/>
<path d="M1619 1905 c-9 -9 -25 -17 -37 -18 -12 -1 -22 -5 -22 -10 0 -4 -4 -5
-10 -2 -5 3 -10 1 -10 -4 0 -6 -4 -11 -10 -11 -13 0 -56 -43 -52 -52 1 -5 -5
-8 -14 -8 -8 0 -12 -4 -9 -10 3 -5 -3 -15 -15 -22 -11 -7 -20 -16 -20 -21 0
-4 5 -5 11 -1 6 3 3 -5 -6 -20 -10 -14 -14 -26 -9 -26 4 0 0 -6 -11 -13 -11
-9 -14 -16 -7 -21 7 -4 8 -17 2 -36 -5 -16 -5 -32 0 -35 4 -2 6 -18 5 -35 -2
-19 1 -27 8 -23 6 4 8 0 4 -10 -4 -10 -1 -17 5 -17 6 0 9 -3 5 -6 -6 -7 19
-64 29 -64 3 0 2 5 -2 12 -4 7 -3 8 5 4 6 -4 9 -11 7 -15 -3 -4 2 -18 11 -30
12 -18 17 -20 24 -10 6 10 9 8 9 -9 0 -13 4 -20 10 -17 6 3 10 1 10 -5 0 -6 5
-8 10 -5 6 3 10 2 10 -3 0 -8 42 -24 60 -23 3 0 15 -6 27 -14 14 -10 24 -11
28 -4 5 7 11 6 21 -2 8 -6 14 -7 14 -2 0 5 16 8 35 8 20 -1 32 2 28 8 -4 6 5
7 23 3 16 -4 26 -4 22 0 -5 4 10 15 32 25 22 10 40 23 40 30 0 6 6 9 14 6 10
-4 13 0 11 14 -2 11 -1 18 3 16 7 -4 41 28 43 41 1 4 4 6 8 5 4 -1 8 5 8 13 0
7 -5 14 -11 14 -5 0 -2 6 8 13 11 8 17 27 18 55 0 26 4 39 11 35 6 -4 7 -1 1
8 -5 8 -9 29 -10 47 -2 18 -7 39 -13 46 -6 8 -9 20 -6 29 4 9 -3 21 -17 31
-12 9 -18 16 -13 16 6 1 -1 10 -14 20 -13 11 -20 20 -17 20 4 0 1 6 -6 14 -7
8 -16 12 -20 9 -5 -2 -8 1 -8 6 0 6 -7 11 -15 11 -7 0 -19 8 -24 18 -6 9 -11
13 -11 9 0 -4 -10 -2 -22 5 -13 7 -28 11 -35 10 -6 -1 -14 2 -18 8 -5 8 -11 8
-20 0 -9 -8 -15 -8 -20 0 -3 5 -15 10 -26 10 -11 0 -17 -4 -14 -10 3 -6 -4
-10 -17 -10 -18 0 -20 2 -8 10 8 5 10 10 5 10 -6 0 -18 -7 -26 -15z"/>
<path d="M11 1621 c-15 -10 -13 -109 3 -130 8 -11 8 -13 0 -8 -6 3 -11 0 -11
-8 0 -8 4 -12 8 -9 4 2 8 -4 8 -13 -1 -10 2 -31 6 -48 4 -16 8 -36 8 -42 0 -7
5 -13 10 -13 5 0 3 -8 -4 -17 -8 -9 -9 -14 -4 -11 6 4 16 -2 23 -13 9 -14 9
-19 1 -19 -8 0 -7 -6 3 -17 8 -10 23 -37 34 -60 10 -24 22 -43 27 -43 4 0 5
-4 2 -10 -3 -5 -1 -10 4 -10 6 0 11 -7 11 -15 0 -9 7 -18 15 -21 8 -4 12 -10
9 -15 -3 -5 0 -9 5 -9 6 0 11 -6 11 -14 0 -7 11 -21 24 -32 14 -10 22 -22 19
-27 -3 -6 -2 -7 4 -4 11 7 45 -28 36 -37 -4 -3 -1 -6 6 -6 7 0 26 -13 41 -30
15 -16 32 -30 37 -30 6 0 18 -9 28 -20 10 -11 23 -20 28 -20 6 0 26 -12 45
-27 20 -15 32 -20 27 -12 -5 8 1 5 13 -5 12 -11 22 -15 22 -11 0 5 7 0 16 -11
8 -10 12 -13 9 -6 -6 11 -3 11 11 3 21 -12 74 -34 89 -37 6 -1 12 -3 15 -4 3
-2 20 -4 38 -4 19 -1 38 -9 43 -17 5 -8 9 -9 9 -4 0 6 16 10 35 10 19 0 35 -4
35 -8 0 -5 15 -6 33 -2 24 5 28 4 17 -4 -12 -9 -11 -10 7 -8 12 2 26 6 29 10
10 10 26 9 20 -1 -3 -5 1 -9 9 -9 8 0 12 4 9 9 -3 4 5 8 18 8 71 -1 108 2 108
10 0 5 9 7 20 5 11 -2 20 0 20 5 0 4 9 6 20 3 11 -3 20 0 20 6 0 6 8 11 18 11
10 0 28 8 41 17 18 12 22 13 16 2 -7 -11 -6 -12 7 -2 8 7 19 9 23 5 5 -4 5 -1
1 6 -4 6 -2 13 3 13 21 3 26 4 39 12 7 5 14 2 18 -7 3 -8 14 -13 25 -11 12 2
19 -2 19 -11 0 -8 5 -12 10 -9 6 3 10 1 10 -4 0 -6 5 -11 11 -11 5 0 7 5 3 11
-4 7 3 6 17 -2 13 -7 28 -12 33 -11 5 2 18 -5 29 -15 14 -13 18 -14 12 -3 -6
12 -5 12 5 3 7 -6 19 -9 28 -6 9 4 13 2 9 -4 -4 -6 5 -9 23 -7 17 2 30 0 30
-4 0 -5 18 -7 41 -5 30 2 38 0 33 -9 -4 -7 1 -5 12 4 19 17 21 17 38 0 11 -9
16 -12 12 -5 -4 8 4 11 26 9 18 -2 43 1 56 5 14 6 22 5 22 -2 0 -8 5 -7 15 1
8 7 22 10 30 6 8 -3 15 -2 15 2 0 7 16 11 58 14 6 1 12 5 12 10 0 4 3 7 8 7
26 -4 52 2 46 12 -4 8 0 9 15 4 11 -3 21 -2 21 3 0 6 12 13 26 16 15 4 51 22
80 41 30 19 54 33 54 30 0 -2 12 8 28 22 15 14 41 34 57 44 17 11 26 19 22 19
-5 0 12 20 37 45 26 25 44 45 41 45 -3 0 3 9 13 19 32 36 42 50 42 60 0 5 7
12 16 15 8 3 13 10 10 15 -4 5 1 16 9 25 9 8 15 17 15 18 -1 2 4 17 11 33 7
17 12 33 11 38 -1 4 3 7 9 7 6 0 9 7 6 15 -4 8 -2 17 4 21 6 3 8 13 5 21 -3 8
-1 11 4 8 6 -3 10 0 11 7 2 32 11 73 18 83 4 5 6 22 5 38 -2 15 1 25 7 22 5
-4 5 3 0 18 -6 16 -6 28 1 35 19 19 5 55 -25 63 -16 4 -25 3 -21 -2 7 -11 1
-11 -29 0 -13 5 -30 6 -37 1 -7 -5 -24 -4 -37 1 -14 5 -23 5 -23 -1 0 -6 -9
-6 -23 -1 -13 5 -30 5 -37 1 -9 -5 -20 -4 -27 2 -8 7 -13 7 -13 0 0 -5 -7 -9
-16 -8 -9 0 -18 -7 -19 -17 -2 -9 0 -15 4 -12 4 2 8 -2 8 -10 0 -8 -4 -12 -9
-9 -5 3 -6 -8 -3 -25 3 -17 1 -31 -4 -31 -6 0 -8 -9 -6 -20 2 -11 0 -20 -5
-20 -5 0 -6 -7 -3 -17 4 -10 2 -14 -4 -10 -7 5 -9 0 -6 -13 3 -12 0 -20 -8
-20 -7 0 -9 -3 -6 -7 4 -3 1 -13 -6 -21 -10 -13 -9 -14 3 -8 8 4 4 -2 -10 -14
-14 -12 -18 -18 -10 -14 8 4 4 -5 -10 -21 -14 -16 -18 -25 -10 -20 12 6 11 4
-2 -11 -44 -51 -112 -114 -122 -114 -6 0 -4 -5 4 -10 13 -8 12 -10 -2 -10 -10
0 -27 -9 -38 -20 -11 -11 -21 -20 -22 -19 -7 2 -64 -27 -77 -39 -12 -11 -15
-11 -22 0 -7 11 -9 11 -9 -1 0 -8 -6 -11 -16 -7 -8 3 -12 2 -9 -3 3 -5 1 -12
-4 -15 -5 -4 -12 -2 -16 4 -4 6 -14 4 -29 -5 -12 -8 -25 -12 -28 -9 -4 3 -15
1 -27 -5 -13 -7 -22 -8 -26 -1 -4 7 -13 7 -26 0 -14 -8 -19 -7 -19 1 0 9 -3 9
-14 0 -8 -7 -17 -8 -20 -3 -3 5 -15 8 -28 7 -13 -1 -29 2 -35 8 -9 6 -13 5
-13 -4 0 -11 -2 -11 -10 1 -5 8 -10 11 -10 6 0 -4 -12 -1 -26 9 -15 9 -23 12
-20 6 5 -7 1 -9 -8 -5 -9 3 -16 10 -16 15 0 5 -3 8 -7 7 -17 -3 -63 15 -58 22
3 5 0 12 -6 16 -8 4 -9 3 -5 -4 4 -7 1 -12 -9 -12 -9 0 -14 4 -11 9 3 4 -10
16 -29 27 -18 10 -32 22 -29 26 3 4 -1 8 -9 8 -8 0 -18 7 -21 16 -5 14 -9 13
-36 -3 -16 -9 -30 -21 -30 -26 0 -4 -5 -5 -12 -1 -7 5 -9 2 -5 -9 4 -11 2 -14
-9 -10 -7 3 -14 0 -14 -6 0 -6 -7 -11 -15 -11 -8 0 -15 -4 -15 -9 0 -8 -28
-19 -47 -19 -3 0 -10 -7 -15 -16 -5 -9 -15 -13 -25 -9 -12 5 -14 3 -8 -8 7
-12 6 -12 -7 -1 -13 10 -17 10 -22 -4 -5 -13 -9 -14 -20 -5 -11 10 -16 8 -21
-9 -6 -20 -8 -20 -19 -4 -12 16 -14 16 -24 -2 -6 -10 -12 -13 -12 -7 0 9 -7
10 -23 4 -14 -5 -30 -5 -40 0 -11 7 -17 6 -17 0 0 -10 -34 -8 -64 5 -15 6 -17
4 -11 -7 8 -12 6 -12 -8 -1 -9 8 -22 10 -28 6 -7 -4 -9 -3 -6 3 4 6 -4 11 -18
11 -13 0 -43 9 -66 20 -23 12 -46 19 -51 16 -4 -3 -8 1 -8 9 0 10 -7 13 -20
10 -14 -4 -20 0 -20 12 0 9 -5 15 -12 13 -6 -2 -26 11 -45 29 -18 19 -33 31
-33 28 0 -3 -6 0 -14 7 -10 9 -11 15 -2 20 7 5 5 8 -5 8 -9 0 -23 8 -30 17
-12 14 -12 16 0 8 10 -5 12 -4 7 3 -4 7 -14 12 -22 12 -8 0 -12 5 -9 11 4 6
-2 19 -14 30 -19 18 -25 32 -22 52 0 4 -3 7 -7 7 -5 0 -14 11 -20 25 -14 31
-15 38 -4 31 5 -3 9 1 9 8 0 9 -7 12 -16 8 -9 -3 -13 -2 -9 3 4 4 3 14 -3 22
-9 10 -8 13 2 13 11 0 11 2 0 9 -9 6 -15 27 -16 53 -2 64 -11 83 -39 83 -13 0
-22 -3 -20 -7 3 -4 -5 -6 -16 -5 -11 1 -20 5 -20 9 0 4 -10 4 -23 -1 -13 -5
-30 -5 -39 0 -10 6 -19 6 -22 0 -4 -6 -18 -6 -36 -1 -20 6 -28 5 -24 -1 7 -11
-28 -8 -36 3 -3 4 -11 3 -19 -1z"/>
</g>
</svg>
